<?xml version="1.0" encoding="iso-8859-1"?>
<!-- Generator: Adobe Illustrator 19.0.0, SVG Export Plug-In . SVG Version: 6.00 Build 0)  -->
<svg version="1.1" id="Layer_1" xmlns="http://www.w3.org/2000/svg" xmlns:xlink="http://www.w3.org/1999/xlink" x="0px" y="0px"
	 viewBox="0 0 512 512" style="enable-background:new 0 0 512 512;" xml:space="preserve">
<g>
	<path style="fill:#89643D;" d="M382.618,266.521l1.703-1.499c2.07-1.821,4.088-3.578,6.021-5.263l2.997-2.61l5.352,26.721
		L382.618,266.521z"/>
	<path style="fill:#89643D;" d="M391.919,261.318l3.063,15.294l-9.199-9.93C387.892,264.824,389.95,263.034,391.919,261.318z"/>
	<path style="fill:#89643D;" d="M241.191,278.584l1.82-0.024c3.366-0.044,6.764-0.111,10.197-0.188l4.831-0.108l-21.535,26.094
		L241.191,278.584z"/>
	<path style="fill:#89643D;" d="M253.258,280.582l-13.06,15.824l2.842-15.636C246.414,280.727,249.82,280.659,253.258,280.582z"/>
</g>
<g>
	<path style="fill:#BC8753;" d="M41.448,294.15l-0.733-4.298c11.204-3.937,24.487-7.363,39.48-10.182
		c29.977-5.639,59.244-25.373,87.546-44.458c33.492-22.604,65.05-43.904,97.106-43.904c46.451,0,77.722,8.547,78.026,8.633
		c0.507,0.14,1.048,0.213,1.594,0.213h44.233c7.606,0,17.757-3.899,29.511-8.414c2.7-1.041,5.431-2.083,8.161-3.093l2.573-0.952
		l0.384,2.718c0.828,5.88,4.787,10.759,10.863,13.384c0.773,0.335,1.587,0.504,2.417,0.504c2.428,0,4.618-1.438,5.577-3.662
		c0.65-1.498,0.677-3.155,0.077-4.664c-0.597-1.507-1.745-2.69-3.235-3.333c-2.918-1.273-3.616-3.017-3.688-4.256
		c-0.115-1.799,0.948-3.754,2.71-4.971l0.39-0.269l0.467-0.085c2.195-0.404,4.066-0.6,5.718-0.6c8.73,0,27.138,13.757,40.249,25.536
		l2.414,2.169l-8.711,4.366h-25.106c-19.191,0-44.368,9.799-56.689,18.877c-5.1,3.758-22.365,18.684-49.926,43.166l-4.844,4.303
		l1.201-6.365c0.619-3.279,1.059-6.344,1.309-9.111c0.179-1.935-0.587-3.848-2.049-5.123c-1.112-0.976-2.538-1.512-4.021-1.512
		c-0.447,0-0.896,0.049-1.334,0.147c-20.725,4.68-64.523,6.924-98.598,7.461l-4.896,0.077l3.178-3.724
		c3.322-3.893,6.462-7.96,9.332-12.09c0.934-1.34,1.289-2.96,1.001-4.564c-0.286-1.595-1.176-2.98-2.504-3.901
		c-1.033-0.72-2.235-1.099-3.482-1.099c-1.992,0-3.854,0.972-4.985,2.6c-13.419,19.258-30.071,33.596-49.497,42.622
		c-3,1.388-6.114,2.656-9.259,3.772l-2.305-3.647l17.261-17.273c1.86-1.851,2.319-4.668,1.146-7.012l-8.847-17.693
		c-0.839-1.686-2.385-2.869-4.244-3.245c-0.398-0.081-0.804-0.122-1.209-0.122c-1.448,0-2.846,0.52-3.94,1.464l-39.883,34.187
		c-13.121,11.236-29.858,17.426-47.129,17.426H41.448z"/>
	<path style="fill:#BC8753;" d="M489.396,209.643l-5.34,2.676h-24.583c-19.64,0-45.394,10.019-58.001,19.308
		c-6.723,4.954-31.769,27.026-50.083,43.293c0.586-3.108,1.062-6.259,1.338-9.322c0.244-2.643-0.796-5.242-2.797-6.989
		c-1.992-1.748-4.7-2.433-7.289-1.858c-19.783,4.468-61.749,6.834-98.153,7.409c3.218-3.771,6.392-7.84,9.467-12.264
		c2.62-3.76,1.703-8.935-2.057-11.545c-3.76-2.621-8.935-1.703-11.545,2.057c-13.193,18.932-29.548,33.02-48.612,41.878
		c-3.25,1.504-6.291,2.709-9.067,3.693l17.261-17.273c2.532-2.521,3.153-6.381,1.559-9.564l-8.847-17.693
		c-1.139-2.289-3.273-3.915-5.782-4.423c-2.5-0.51-5.098,0.165-7.033,1.836l-39.877,34.181
		c-12.717,10.892-28.951,16.897-45.692,16.897H41.45c9.632-3.384,22.404-6.945,39.156-10.096
		c30.455-5.728,59.936-25.622,88.455-44.852c33.131-22.36,64.438-43.47,95.787-43.47c45.715,0,77.109,8.46,77.419,8.548
		c0.719,0.199,1.46,0.299,2.201,0.299h44.233c8.028,0,18.379-3.981,30.355-8.581c2.643-1.017,5.363-2.057,8.084-3.063
		c0.929,6.591,5.396,12.175,12.175,15.106c1.074,0.464,2.19,0.686,3.295,0.686c3.207,0,6.259-1.869,7.608-4.998
		c1.825-4.213-0.111-9.09-4.312-10.903c-1.039-0.453-2.289-1.216-2.357-2.355c-0.055-0.863,0.477-2.134,1.759-3.019
		c1.923-0.354,3.726-0.564,5.319-0.564C457.948,184.673,474.801,196.529,489.396,209.643z"/>
</g>
<path style="fill:#3D484A;" d="M509.568,205.906c1.891,1.88,2.754,4.556,2.323,7.188c-0.421,2.632-2.091,4.899-4.48,6.093
	l-17.693,8.847c-1.15,0.575-2.421,0.874-3.705,0.874h-26.54c-16.963,0-39.246,9.51-48.159,16.079
	c-1.095,0.796-2.798,2.178-4.954,3.959l15.205,76.026c0.276,1.36,1.482,2.355,2.876,2.355h8.493c4.578,0,8.294,3.716,8.294,8.294
	c0,4.578-3.716,8.294-8.294,8.294h-8.493c-9.267,0-17.317-6.602-19.142-15.692l-4.092-20.469l-27.878-30.112
	c-10.605,9.366-21.354,18.954-29.415,26.186v23.477l9.4,0.022c4.578,0,8.294,3.716,8.294,8.294c0,4.578-3.716,8.294-8.294,8.294
	h-9.377c-9.155,0-16.61-7.453-16.61-16.61v-27.072c0-1.017,0.188-2.024,0.553-2.975c0.055-0.133,4.047-10.638,6.558-22.183
	c-15.67,2.311-36.989,3.881-59.084,4.81l-30.643,37.112l5.684,8.526c0.753,1.128,2.013,1.802,3.362,1.802h5.562
	c4.578,0,8.294,3.716,8.294,8.294s-3.716,8.294-8.294,8.294h-5.562c-6.911,0-13.325-3.439-17.162-9.189l-14.033-21.044
	c-1.194-1.791-1.648-3.97-1.261-6.082l4.588-25.246c-20.225,16.399-39.709,22.592-50.061,24.87v18.292
	c0,1.006,0.807,1.814,1.814,1.814h7.586c4.578,0,8.294,3.716,8.294,8.294c0,4.578-3.716,8.294-8.294,8.294h-7.586
	c-10.152,0-18.401-8.249-18.401-18.401v-34.127c0-2.201,0.874-4.313,2.433-5.861l22.305-22.316l-1.415-2.842l-31.815,27.259
	c-15.726,13.48-35.785,20.9-56.486,20.9H8.296c-3.218,0-6.148-1.869-7.52-4.788c-1.36-2.919-0.907-6.359,1.161-8.825
	c1.537-1.847,16.742-18.289,75.594-29.371c27.093-5.098,55.136-24.019,82.252-42.309c33.75-22.758,68.638-46.301,105.065-46.301
	c43.736,0,74.444,7.243,80.692,8.847h43.161c4.943,0,15.283-3.97,24.406-7.475c13.07-5.02,26.595-10.218,37.521-10.218
	C470.742,168.086,503.254,199.592,509.568,205.906z M484.056,212.319l5.34-2.676c-14.596-13.115-31.449-24.97-38.77-24.97
	c-1.592,0-3.395,0.21-5.319,0.564c-1.283,0.885-1.815,2.156-1.759,3.019c0.067,1.139,1.316,1.902,2.357,2.355
	c4.202,1.814,6.137,6.69,4.312,10.903c-1.349,3.129-4.4,4.998-7.608,4.998c-1.106,0-2.223-0.221-3.295-0.686
	c-6.779-2.93-11.246-8.515-12.175-15.106c-2.72,1.006-5.441,2.046-8.084,3.063c-11.976,4.6-22.327,8.581-30.355,8.581h-44.233
	c-0.741,0-1.482-0.1-2.201-0.299c-0.309-0.088-31.704-8.548-77.419-8.548c-31.35,0-62.656,21.11-95.787,43.47
	c-28.519,19.23-58.001,39.124-88.455,44.852c-16.752,3.152-29.525,6.712-39.156,10.096h52.814c16.742,0,32.975-6.005,45.692-16.897
	l39.877-34.181c1.935-1.67,4.534-2.344,7.033-1.836c2.51,0.509,4.643,2.134,5.782,4.423l8.847,17.693
	c1.592,3.184,0.973,7.044-1.559,9.564l-17.261,17.273c2.776-0.984,5.817-2.19,9.067-3.693c19.064-8.858,35.42-22.946,48.612-41.878
	c2.61-3.76,7.785-4.678,11.545-2.057c3.76,2.61,4.678,7.785,2.057,11.545c-3.074,4.423-6.248,8.493-9.467,12.264
	c36.404-0.575,78.37-2.941,98.153-7.409c2.589-0.575,5.297,0.111,7.289,1.858c2.002,1.746,3.041,4.346,2.797,6.989
	c-0.276,3.063-0.752,6.215-1.338,9.322c18.313-16.267,43.36-38.34,50.083-43.293c12.606-9.289,38.361-19.308,58.001-19.308h24.586
	V212.319z M394.981,276.612l-3.063-15.294c-1.968,1.714-4.026,3.505-6.137,5.363L394.981,276.612z M240.199,296.406l13.06-15.824
	c-3.438,0.077-6.844,0.144-10.217,0.188L240.199,296.406z"/>
<g>
</g>
<g>
</g>
<g>
</g>
<g>
</g>
<g>
</g>
<g>
</g>
<g>
</g>
<g>
</g>
<g>
</g>
<g>
</g>
<g>
</g>
<g>
</g>
<g>
</g>
<g>
</g>
<g>
</g>
</svg>
